<svg xmlns="http://www.w3.org/2000/svg" viewBox="0 0 330.13 169.78"><defs><style>.cls-1,.cls-7{fill:#fff;}.cls-1{stroke:#000;stroke-miterlimit:10;stroke-width:4px;}.cls-2{fill:#e8b665;}.cls-3{fill:#f7b09c;}.cls-4{fill:#9b9b9b;}.cls-5{fill:#bdcec6;}.cls-6{fill:#edcabd;}</style></defs><g id="Layer_2" data-name="Layer 2"><g id="Layer_1-2" data-name="Layer 1"><rect class="cls-1" x="263.57" y="8.29" width="63.16" height="89.72"/><rect class="cls-1" x="197.86" y="15.68" width="58.67" height="89.72"/><rect class="cls-1" x="132.25" y="5.86" width="58.67" height="89.72"/><rect class="cls-1" x="67.28" y="22.6" width="58.67" height="89.72"/><circle cx="31.59" cy="143.16" r="21.4"/><circle cx="121.89" cy="142.38" r="21.4"/><circle cx="77.08" cy="148.37" r="21.4"/><circle cx="165.92" cy="144.37" r="21.4"/><circle cx="210.12" cy="136.38" r="21.4"/><circle cx="255.55" cy="144.37" r="21.4"/></g><g id="Layer_6" data-name="Layer 6"><rect class="cls-1" x="2" y="8.83" width="58.67" height="89.72"/><rect class="cls-2" x="69.03" y="16.74" width="59.59" height="93.61"/><rect class="cls-3" x="265.98" y="2.43" width="64.15" height="93.61"/><rect class="cls-4" x="200.1" y="9.83" width="59.59" height="93.61"/><rect class="cls-5" x="3.74" y="2.97" width="59.59" height="93.61"/><rect class="cls-6" x="134" width="59.59" height="93.61"/><polygon points="91.06 65.91 91.06 82.51 121.06 82.51 121.06 92.61 76.66 92.61 76.66 30.31 121.06 30.31 121.06 40.41 91.06 40.41 91.06 55.91 118.06 55.91 118.06 65.91 91.06 65.91"/><polygon points="156.92 76.08 156.92 23.78 138.92 23.78 138.92 13.78 189.42 13.78 189.42 23.78 171.42 23.78 171.42 76.08 156.92 76.08"/><path d="M8.39,77.86V15.56h24c16.11,0,24.11,8.6,24.11,19.8,0,5.2-4.5,11.7-11,13.3,6.31,1.1,9.61,7.7,10.31,12.8l.8,7v-.1a25.49,25.49,0,0,0,4.2,9.5H45.4a20,20,0,0,1-3.31-8.6L41,62.06c-.7-5.1-1.6-7.5-6.5-7.5H22.79v23.3Z"/><path class="cls-5" d="M22.79,26.16v17.9h11.1c5,0,7.9-2.9,7.9-8.6s-2.9-9.3-9.5-9.3Z"/><path d="M204.17,91.61V29.31h24c16.1,0,24.1,8.6,24.1,19.8,0,5.2-4.5,11.7-11,13.3,6.3,1.1,9.6,7.7,10.3,12.8l.8,7v-.1a25.49,25.49,0,0,0,4.2,9.5h-15.4a20.1,20.1,0,0,1-3.3-8.6l-1.1-7.2c-.7-5.1-1.6-7.5-6.5-7.5h-11.7v23.3Z"/><path class="cls-4" d="M218.57,39.91v17.9h11.1c5,0,7.9-2.9,7.9-8.6s-2.9-9.3-9.5-9.3Z"/><path d="M297.1,76.49c-19.5,0-29.21-13.53-29.21-31.56s9.71-31.66,29.7-31.66c19.7,0,29.21,13.53,29.21,31.66S317.29,76.49,297.1,76.49ZM297.49,66c10.39,0,15.09-8.43,15.09-21,0-12.74-4.8-21.27-15.38-21.27-10.29,0-15,8.53-15,21.27C282.2,57.57,287,66,297.49,66Z"/></g><g id="Layer_2-2" data-name="Layer 2"><path class="cls-7" d="M36.67,135.53a5.76,5.76,0,0,1,2.4,5.08c0,5-4.36,6.55-8,6.55a23,23,0,0,1-3.72-.28,1.29,1.29,0,0,0-.52,1c0,.52.28.76.68.76l4.92,0c4.88,0,7.6,1.2,7.6,5.36s-3.28,6.08-9.16,6.08c-5.72,0-8.8-1.88-8.8-5.48a4.56,4.56,0,0,1,2.76-3.6,3,3,0,0,1-1.48-2.44,3.49,3.49,0,0,1,2-3,5.59,5.59,0,0,1-2.36-5c0-5,4.48-6.56,8.08-6.56a15.7,15.7,0,0,1,2.52.16,5.73,5.73,0,0,1,4.84-2.28,5.47,5.47,0,0,1,2.12.32v3.24a8.38,8.38,0,0,0-2.4-.48A2.14,2.14,0,0,0,36.67,135.53Z"/><path d="M27.63,152h-.44a3.22,3.22,0,0,0-1.36,2.64c0,1.68,2.28,2.32,5.2,2.32,3.4,0,5-.6,5-2.56,0-1.64-1-2.4-2.76-2.4Z"/><path d="M31,137.13c-1.52,0-3.64.64-3.64,3.48,0,3.15,2.12,3.51,3.64,3.51s3.64-.68,3.64-3.51S32.55,137.13,31,137.13Z"/><path class="cls-7" d="M85.06,154.26v3.16a8.35,8.35,0,0,1-1.68.2,4.15,4.15,0,0,1-4.08-2.48,5.31,5.31,0,0,1-4.67,2.56c-4.2,0-7-1.92-7-5.6,0-4.76,4-5.48,7.67-6.32l.76-.16c1.36-.28,2.52-.56,2.52-2.32,0-1.6-.8-2.36-2.8-2.36s-3,1.4-3.35,3.64l-4.16-1.28c.84-3.12,3-5.43,7.55-5.43S83,140,83,143.3v9.8c0,1,.36,1.36.8,1.4A2.65,2.65,0,0,0,85.06,154.26Z"/><path d="M78.62,151.82V147.9a21.76,21.76,0,0,1-2.44.6l-.56.12c-2,.44-3.55,1.28-3.55,3.48,0,1.88,1.48,2.48,3,2.48A4.22,4.22,0,0,0,78.62,151.82Z"/><path class="cls-7" d="M121.75,153.76h-4.4V134.65h4.4V136c.44-.84,1.36-1.67,3.44-1.67.4,0,1,0,1.32.08s.68,0,.8,0v3.63a7.74,7.74,0,0,0-2.36-.68,3,3,0,0,0-3.2,2.16Z"/><path class="cls-7" d="M168.35,129.43h4.4v25.51h-4.4v-2.12c-.56,1.6-1.88,2.56-4.88,2.56-5,0-8.12-3.8-8.12-9.84s3.16-10,8.12-10c3,0,4.32,1,4.88,2.6Z"/><path d="M164,138.63c-3,.08-4.24,2.76-4.24,6.75s1.28,6.8,4.24,6.88,4.36-2.68,4.36-6.72S167.07,138.63,164,138.63Z"/><path class="cls-7" d="M218.32,139.55H205.53c.28,3.52,1.76,5.64,4.63,5.64,1.84-.08,3.28-1.4,3.68-3.64l4.32.68a7.92,7.92,0,0,1-8,6.08c-6.11,0-9-4.2-9-9.88s2.88-10,9-10c4.92,0,8.2,2.92,8.2,8.59Z"/><path d="M205.69,136.51H214c-.12-3.27-1.6-4.95-3.88-4.95C207.65,131.56,206.05,133.52,205.69,136.51Z"/><path class="cls-7" d="M252.28,153.44h-4.36V134.33h4.36v1.92c.56-1,1.76-2.2,4.64-2.2,4.4,0,6.68,2,6.68,6.52v12.87h-4.48V140.57c0-3-1.4-3.44-2.44-3.44a4.45,4.45,0,0,0-4.4,3.32Z"/></g></g></svg>